<?xml version="1.0" standalone="no"?>
<!DOCTYPE svg PUBLIC "-//W3C//DTD SVG 20010904//EN"
 "http://www.w3.org/TR/2001/REC-SVG-20010904/DTD/svg10.dtd">
<svg version="1.0" xmlns="http://www.w3.org/2000/svg"
 width="704.000000pt" height="704.000000pt" viewBox="0 0 704.000000 704.000000"
 preserveAspectRatio="xMidYMid meet">

<g transform="translate(0.000000,704.000000) scale(0.100000,-0.100000)"
fill="#000000" stroke="none">
<path d="M1827 6544 c-168 -40 -339 -178 -415 -334 -84 -171 -77 42 -77 -2285
0 -1633 3 -2081 13 -2124 33 -140 113 -283 205 -368 67 -60 1614 -1094 1682
-1123 181 -78 378 -80 556 -5 34 15 417 263 852 553 878 585 894 597 975 749
23 45 51 116 62 159 20 76 20 115 20 2153 0 2296 4 2133 -65 2276 -83 171
-251 308 -427 350 -92 22 -3292 21 -3381 -1z m3374 -137 c138 -47 242 -134
307 -255 65 -122 62 6 62 -2232 0 -2247 4 -2108 -65 -2238 -72 -137 -65 -132
-935 -712 -515 -343 -824 -543 -856 -553 -132 -44 -276 -42 -398 3 -66 25
-1609 1051 -1674 1114 -60 58 -109 132 -140 212 l-26 69 -7 1925 c-5 1059 -4
2006 0 2105 7 149 12 190 31 240 61 159 181 271 350 326 52 17 149 18 1670 18
l1615 0 66 -22z"/>
<path d="M1893 6295 c-122 -33 -205 -101 -260 -212 -36 -73 -37 -79 -41 -205
l-4 -129 33 3 34 3 6 125 c4 109 8 131 31 175 34 64 83 113 150 150 l53 30
1607 3 c1602 2 1607 2 1662 -18 73 -28 148 -96 183 -168 25 -51 28 -70 32
-174 l3 -118 34 0 34 0 0 93 c0 111 -19 193 -63 266 -38 64 -121 133 -197 164
l-55 22 -1595 2 c-1352 2 -1603 0 -1647 -12z"/>
<path d="M1497 5544 c-4 -4 -7 -20 -7 -36 0 -25 3 -28 35 -28 l35 0 0 -176 0
-175 33 3 32 3 3 173 2 172 31 0 c28 0 30 2 27 33 l-3 32 -90 3 c-50 1 -94 0
-98 -4z"/>
<path d="M1773 5540 c-12 -5 -26 -18 -32 -29 -12 -22 -15 -330 -3 -347 25 -38
134 -47 173 -15 23 18 24 26 27 162 5 185 0 207 -43 225 -38 16 -89 17 -122 4z
m91 -76 c8 -20 8 -228 0 -248 -4 -10 -18 -16 -35 -16 l-29 0 0 140 0 140 29 0
c17 0 31 -6 35 -16z"/>
<path d="M1997 5543 c-4 -3 -7 -98 -7 -210 l0 -203 80 0 c73 0 83 3 105 25 21
20 25 34 25 87 0 40 -6 71 -15 85 -13 19 -13 22 0 27 11 4 15 21 15 65 0 79
-12 106 -51 120 -35 12 -142 15 -152 4z m128 -112 c0 -47 -19 -69 -49 -58 -12
5 -16 19 -16 57 l0 51 33 -3 c31 -3 32 -5 32 -47z m-7 -130 c9 -5 12 -24 10
-52 -3 -42 -5 -44 -35 -47 l-33 -3 0 55 c0 51 2 56 23 56 12 0 28 -4 35 -9z"/>
<path d="M2248 5544 c-5 -4 -8 -99 -8 -211 l0 -203 80 0 c73 0 83 3 105 25 22
21 25 33 25 93 0 39 -5 73 -12 80 -9 9 -9 15 0 24 7 7 12 40 12 79 0 98 -15
113 -117 117 -43 2 -81 0 -85 -4z m130 -116 c3 -43 1 -48 -22 -54 -37 -9 -46
2 -46 57 l0 50 33 -3 c31 -3 32 -5 35 -50z m0 -175 l3 -53 -35 0 -36 0 0 48
c0 56 5 64 40 60 23 -3 25 -8 28 -55z"/>
<path d="M2627 5544 c-4 -4 -7 -99 -7 -211 l0 -203 106 0 105 0 -3 33 -3 32
-67 3 -68 3 0 54 0 54 53 3 c48 3 52 5 52 28 0 23 -5 25 -50 30 l-50 5 -3 53
-3 52 71 0 71 0 -3 33 -3 32 -95 3 c-53 1 -99 0 -103 -4z"/>
<path d="M2867 5544 c-4 -4 -7 -20 -7 -36 0 -25 3 -28 35 -28 27 0 35 -4 35
-17 1 -10 2 -88 3 -173 l2 -155 32 -3 33 -3 2 173 3 173 33 3 c31 3 33 6 30
35 l-3 32 -95 3 c-53 1 -99 0 -103 -4z"/>
<path d="M3117 5543 c-4 -3 -7 -89 -7 -190 0 -173 1 -184 21 -204 18 -18 30
-21 86 -17 95 6 94 4 91 228 l-3 185 -24 3 c-13 2 -28 -2 -32 -10 -5 -7 -9
-86 -9 -175 l0 -163 -30 0 c-16 0 -31 6 -32 13 -4 32 -5 62 -7 195 -1 142 -1
142 -24 142 -13 0 -27 -3 -30 -7z"/>
<path d="M3484 5537 c-2 -7 -3 -100 -2 -207 l3 -195 33 -3 32 -3 0 70 c0 63 2
71 19 71 15 0 23 -13 36 -57 9 -32 18 -64 20 -70 2 -7 18 -13 35 -13 36 0 37
11 14 89 -14 49 -14 54 2 72 21 23 30 114 19 185 -6 40 -11 47 -40 60 -44 18
-164 19 -171 1z m141 -127 l0 -65 -37 -3 -38 -3 0 64 c0 35 3 67 7 71 4 4 21
6 38 4 l30 -3 0 -65z"/>
<path d="M3793 5539 c-19 -5 -35 -18 -39 -31 -4 -12 -7 -94 -7 -182 1 -156 1
-160 24 -179 19 -15 36 -18 88 -15 90 6 91 7 91 204 0 141 -2 165 -18 184 -21
25 -88 35 -139 19z m87 -199 l0 -140 -29 0 c-17 0 -31 6 -35 16 -3 9 -6 64 -6
124 0 60 3 115 6 124 4 10 18 16 35 16 l29 0 0 -140z"/>
<path d="M4056 5540 c-16 -5 -33 -15 -37 -22 -5 -7 -9 -88 -9 -180 0 -203 3
-208 100 -208 79 0 100 19 100 91 l0 50 -32 -3 c-29 -3 -33 -7 -36 -35 -3 -29
-7 -33 -33 -33 -21 0 -29 5 -29 18 -3 131 1 247 8 254 19 19 47 4 52 -27 4
-25 10 -31 38 -33 l32 -3 0 50 c0 42 -4 53 -26 70 -28 22 -76 26 -128 11z"/>
<path d="M4260 5340 l0 -211 33 3 32 3 5 68 c3 37 9 68 15 70 5 1 23 -31 39
-70 28 -69 32 -73 61 -73 18 0 34 3 37 6 4 3 -16 53 -42 111 l-49 106 45 89
c25 49 42 93 39 98 -10 16 -51 11 -66 -7 -8 -10 -28 -47 -44 -82 l-30 -64 -5
79 -5 79 -32 3 -33 3 0 -211z"/>
<path d="M4540 5340 l0 -210 100 0 100 0 0 35 0 35 -65 0 -65 0 0 55 0 55 50
0 c49 0 50 1 50 30 0 29 -1 30 -50 30 l-50 0 0 55 0 55 65 0 65 0 0 35 0 35
-100 0 -100 0 0 -210z"/>
<path d="M4787 5544 c-4 -4 -7 -20 -7 -36 0 -25 3 -28 35 -28 l35 0 0 -175 0
-175 35 0 35 0 2 173 3 172 33 3 c31 3 33 6 30 35 l-3 32 -95 3 c-53 1 -99 0
-103 -4z"/>
<path d="M5027 5543 c-4 -3 -7 -98 -7 -210 l0 -203 35 0 35 0 0 70 c0 62 2 70
19 70 15 0 23 -13 36 -57 9 -32 18 -64 20 -70 2 -7 18 -13 35 -13 36 0 37 11
14 89 -14 49 -14 54 2 72 21 23 30 114 19 185 -6 40 -11 47 -40 60 -35 14
-156 20 -168 7z m138 -133 l0 -65 -37 -3 -38 -3 0 64 c0 35 3 67 7 71 4 4 21
6 38 4 l30 -3 0 -65z"/>
<path d="M5275 5541 c-3 -5 16 -58 42 -118 43 -98 47 -117 51 -200 l4 -93 29
0 c16 0 29 6 30 13 0 6 0 42 -1 79 -1 59 4 81 49 189 28 67 48 126 45 130 -8
13 -50 11 -61 -3 -6 -7 -21 -41 -34 -75 -13 -35 -26 -63 -29 -63 -4 0 -14 24
-24 53 -26 74 -43 97 -71 97 -13 0 -26 -4 -30 -9z"/>
<path d="M3037 4432 l-507 -507 0 -844 0 -845 -230 -231 c-126 -127 -230 -235
-230 -239 0 -4 23 -49 52 -99 28 -51 69 -125 90 -164 22 -40 43 -73 47 -73 5
0 217 212 472 472 255 259 483 490 507 514 l42 42 -96 168 c-53 93 -98 171
-100 173 -1 1 -42 -38 -90 -88 -47 -50 -91 -91 -95 -91 -5 0 -9 257 -9 576 l0
576 455 456 c250 251 454 460 453 464 -4 11 -239 248 -247 248 -3 0 -234 -228
-514 -508z"/>
<path d="M1594 4726 c-2 -6 -3 -660 -2 -1452 l3 -1441 43 -86 c28 -57 57 -98
86 -124 55 -48 1554 -1049 1618 -1080 101 -49 244 -49 351 0 29 13 405 259
835 546 735 490 785 525 827 582 24 33 54 85 67 117 l23 57 3 1448 2 1447 -35
0 -35 0 -2 -1447 -3 -1448 -27 -57 c-14 -31 -44 -76 -67 -100 -25 -28 -326
-234 -823 -566 -698 -465 -790 -523 -848 -538 -71 -18 -147 -15 -217 10 -56
20 -1582 1038 -1633 1090 -23 22 -53 66 -68 96 l-27 55 -5 1449 -5 1450 -28 1
c-16 1 -31 -3 -33 -9z"/>
<path d="M3721 4514 l-124 -125 309 -312 309 -312 -3 -580 -2 -579 -99 98
c-54 54 -101 94 -104 90 -2 -5 -51 -89 -107 -187 l-102 -179 128 -131 c71 -72
136 -138 144 -147 8 -9 143 -149 300 -311 157 -162 319 -329 361 -373 l76 -79
103 177 c56 98 103 183 104 190 1 14 -90 113 -300 327 l-134 136 0 853 0 854
-357 358 c-197 197 -362 358 -368 358 -5 0 -66 -57 -134 -126z"/>
</g>
</svg>
